. 
 
 
http://www.torrentday.com :  Your Key To The Scene.


Now TvTeam with [No-RAR] Releases.



(((((((((((((= Enjoy No RAR releases =))))))))))))))))))))



...................................NFO:....................................

.
                                                     
                                                   
                                                         
                                                          
                                                           
                                                          
                                                          
                                                          
                                                           
                                                         
                                                          
                                                        
                                                      
                                     
                                                 
                                                   
                                             
                                              
                                                     
                                                      
                                                      
                                                      
                                                    
                                                     
                                                   
                                                     
                                                     
                                                      
                                                     
                                                      
                                                    
                 ARTiCHOKE                        
                                                
                      
                                                        
                                                      
                                                      
                                               
                                          
                                                   
                                            
                                                    
                                                       
                                                        
                                                      
                                                
                                                        
                                                 
                                              
                                                  
                                                
                                                  
                                        

      
                                
      SPRiNTER proudly presents...     
                                
      
 
 Disney.Parks.2010.DVDRip.XViD-SPRiNTER
 www.disneyvacations.com
 Subtitles: N/A

 Date: 2010.03


 Director : Alex Pels

 Discover the Disney parks' best-kept secrets -- and, more important, 
 the best ways to enjoy them -- with this virtual behind-the-scenes  
 tour that shows viewers sights few other park visitors get to see. The 
 program explores offerings at both the Walt Disney World Resort in  
 Orlando, Fla., and the Disneyland Resort in Anaheim, Calif., and even 
 hops aboard the Disney Cruise Line for a firsthand look at the  
 private Disney island, Castaway Cay.  



      
                 
      Release notes     
                 
      

 Hybrid source.
 Enjoy!


      
           
     Greetings    
           
      


NTX aAF FiCO HNR CiNEFiLE AEN HUMANiSM


      
           
      Details     
           
      


Format                           : AVI
Format/Info                      : Audio Video Interleave
File size                        : 697 MiB
Duration                         : 51mn 40s
Overall bit rate                 : 1 886 Kbps
Writing application              : Nandub v1.0rc2
Writing library                  : Nandub build 1852/release

Video
ID                               : 0
Format                           : MPEG-4 Visual
Format profile                   : Advanced Simple@L5
Format settings, BVOP            : No
Format settings, QPel            : No
Format settings, GMC             : No warppoints
Format settings, Matrix          : Default (H.263)
Codec ID                         : XVID
Codec ID/Hint                    : XviD
Duration                         : 51mn 40s
Bit rate                         : 1 737 Kbps
Width                            : 576 pixels
Height                           : 320 pixels
Display aspect ratio             : 16:9
Frame rate                       : 29.970 fps
Resolution                       : 8 bits
Colorimetry                      : 4:2:0
Scan type                        : Progressive
Bits/(Pixel*Frame)               : 0.315
Stream size                      : 642 MiB (92%)
Writing library                  : XviD 1.1.2 (UTC 2006-11-01)

Audio
ID                               : 1
Format                           : MPEG Audio
Format version                   : Version 1
Format profile                   : Layer 3
Codec ID                         : 55
Codec ID/Hint                    : MP3
Duration                         : 51mn 40s
Bit rate mode                    : Variable
Bit rate                         : 135 Kbps
Minimum bit rate                 : 40.0 Kbps
Channel(s)                       : 2 channels
Sampling rate                    : 48.0 KHz
Stream size                      : 49.8 MiB (7%)
Alignment                        : Aligned on interleaves
Interleave, duration             : 24 ms (0.72 video frame)
Interleave, preload duration     : 250 ms
Writing library                  : LAME3.95 
Encoding settings                : -m s -V 6 -q 3 -lowpass 16 --vbr-old -b 40